<mxfile host="65bd71144e">
    <diagram id="LDmWOMWm_YTV0SkojGTu" name="Page-1">
        <mxGraphModel dx="1360" dy="1107" grid="1" gridSize="10" guides="1" tooltips="1" connect="1" arrows="1" fold="1" page="1" pageScale="1" pageWidth="850" pageHeight="1100" math="0" shadow="0">
            <root>
                <mxCell id="0"/>
                <mxCell id="1" parent="0"/>
                <mxCell id="12" value="laser projector" style="rounded=0;whiteSpace=wrap;html=1;dashed=1;align=left;verticalAlign=top;" parent="1" vertex="1">
                    <mxGeometry x="310" y="40" width="570" height="440" as="geometry"/>
                </mxCell>
                <mxCell id="17" value="laser controller (raspberry pi 4)" style="rounded=0;whiteSpace=wrap;html=1;dashed=1;align=left;verticalAlign=top;fillColor=#fad9d5;strokeColor=#ae4132;" parent="1" vertex="1">
                    <mxGeometry x="341" y="80" width="399" height="360" as="geometry"/>
                </mxCell>
                <mxCell id="3" value="" style="shape=umlLifeline;participant=umlActor;perimeter=lifelinePerimeter;whiteSpace=wrap;html=1;container=1;collapsible=0;recursiveResize=0;verticalAlign=top;spacingTop=36;outlineConnect=0;" parent="1" vertex="1">
                    <mxGeometry x="70" y="120" width="20" height="300" as="geometry"/>
                </mxCell>
                <mxCell id="4" value="Remote Terminal (phone, desktop)" style="shape=umlLifeline;perimeter=lifelinePerimeter;whiteSpace=wrap;html=1;container=1;collapsible=0;recursiveResize=0;outlineConnect=0;" parent="1" vertex="1">
                    <mxGeometry x="190" y="120" width="100" height="300" as="geometry"/>
                </mxCell>
                <mxCell id="11" value="rx ack" style="html=1;verticalAlign=bottom;endArrow=none;startArrow=block;startFill=1;endFill=0;" parent="4" edge="1">
                    <mxGeometry x="0.0006" width="80" relative="1" as="geometry">
                        <mxPoint x="50" y="169" as="sourcePoint"/>
                        <mxPoint x="229.5" y="169" as="targetPoint"/>
                        <mxPoint as="offset"/>
                    </mxGeometry>
                </mxCell>
                <mxCell id="10" value="upload ack" style="html=1;verticalAlign=bottom;endArrow=block;" parent="4" edge="1">
                    <mxGeometry width="80" relative="1" as="geometry">
                        <mxPoint x="49.56999999999999" y="180" as="sourcePoint"/>
                        <mxPoint x="-110.00142857142856" y="180" as="targetPoint"/>
                        <Array as="points">
                            <mxPoint x="0.06999999999999318" y="180"/>
                        </Array>
                    </mxGeometry>
                </mxCell>
                <mxCell id="33" value="laser en ack / error flag" style="html=1;verticalAlign=bottom;endArrow=block;" parent="4" edge="1">
                    <mxGeometry width="80" relative="1" as="geometry">
                        <mxPoint x="49.569999999999936" y="229" as="sourcePoint"/>
                        <mxPoint x="-110.0014285714285" y="229" as="targetPoint"/>
                        <Array as="points">
                            <mxPoint x="0.06999999999999318" y="229"/>
                        </Array>
                    </mxGeometry>
                </mxCell>
                <mxCell id="5" value="Transmission Transceiver" style="shape=umlLifeline;perimeter=lifelinePerimeter;whiteSpace=wrap;html=1;container=1;collapsible=0;recursiveResize=0;outlineConnect=0;" parent="1" vertex="1">
                    <mxGeometry x="370" y="120" width="100" height="300" as="geometry"/>
                </mxCell>
                <mxCell id="28" value="laser en ack / error flag" style="html=1;verticalAlign=bottom;endArrow=none;startArrow=block;startFill=1;endFill=0;" parent="5" edge="1">
                    <mxGeometry width="80" relative="1" as="geometry">
                        <mxPoint x="50.10000000000002" y="228" as="sourcePoint"/>
                        <mxPoint x="174.5" y="228" as="targetPoint"/>
                    </mxGeometry>
                </mxCell>
                <mxCell id="7" value="select image" style="html=1;verticalAlign=bottom;endArrow=block;" parent="1" edge="1">
                    <mxGeometry width="80" relative="1" as="geometry">
                        <mxPoint x="79.5" y="180" as="sourcePoint"/>
                        <mxPoint x="239.5" y="180" as="targetPoint"/>
                    </mxGeometry>
                </mxCell>
                <mxCell id="8" value="selection ack" style="html=1;verticalAlign=bottom;endArrow=block;" parent="1" edge="1">
                    <mxGeometry width="80" relative="1" as="geometry">
                        <mxPoint x="239.5" y="219" as="sourcePoint"/>
                        <mxPoint x="79.92857142857144" y="219" as="targetPoint"/>
                        <Array as="points">
                            <mxPoint x="190" y="219"/>
                        </Array>
                    </mxGeometry>
                </mxCell>
                <mxCell id="9" value="request&amp;nbsp; image upload" style="html=1;verticalAlign=bottom;endArrow=none;startArrow=block;startFill=1;endFill=0;" parent="1" edge="1">
                    <mxGeometry width="80" relative="1" as="geometry">
                        <mxPoint x="239.57" y="260" as="sourcePoint"/>
                        <mxPoint x="79.99857142857144" y="260" as="targetPoint"/>
                        <Array as="points">
                            <mxPoint x="190.07" y="260"/>
                        </Array>
                    </mxGeometry>
                </mxCell>
                <mxCell id="13" value="Image Processing" style="shape=umlLifeline;perimeter=lifelinePerimeter;whiteSpace=wrap;html=1;container=1;collapsible=0;recursiveResize=0;outlineConnect=0;" parent="1" vertex="1">
                    <mxGeometry x="490" y="120" width="100" height="300" as="geometry"/>
                </mxCell>
                <mxCell id="19" value="raw image" style="html=1;verticalAlign=bottom;endArrow=block;" parent="13" target="13" edge="1">
                    <mxGeometry width="80" relative="1" as="geometry">
                        <mxPoint x="-70" y="159" as="sourcePoint"/>
                        <mxPoint x="109.5" y="159" as="targetPoint"/>
                    </mxGeometry>
                </mxCell>
                <mxCell id="14" value="Command Handler" style="shape=umlLifeline;perimeter=lifelinePerimeter;whiteSpace=wrap;html=1;container=1;collapsible=0;recursiveResize=0;outlineConnect=0;" parent="1" vertex="1">
                    <mxGeometry x="610" y="120" width="100" height="300" as="geometry"/>
                </mxCell>
                <mxCell id="24" value="matrix input" style="html=1;verticalAlign=bottom;endArrow=block;" parent="14" edge="1">
                    <mxGeometry width="80" relative="1" as="geometry">
                        <mxPoint x="-70" y="169" as="sourcePoint"/>
                        <mxPoint x="49.5" y="169" as="targetPoint"/>
                    </mxGeometry>
                </mxCell>
                <mxCell id="27" value="laser en ack / error flag" style="html=1;verticalAlign=bottom;endArrow=none;startArrow=block;startFill=1;endFill=0;" parent="14" edge="1">
                    <mxGeometry width="80" relative="1" as="geometry">
                        <mxPoint x="-70" y="228" as="sourcePoint"/>
                        <mxPoint x="49.5" y="228" as="targetPoint"/>
                    </mxGeometry>
                </mxCell>
                <mxCell id="15" value="Laser / Motors" style="shape=umlLifeline;perimeter=lifelinePerimeter;whiteSpace=wrap;html=1;container=1;collapsible=0;recursiveResize=0;outlineConnect=0;" parent="1" vertex="1">
                    <mxGeometry x="760" y="120" width="100" height="300" as="geometry"/>
                </mxCell>
                <mxCell id="36" value="laser en" style="html=1;verticalAlign=bottom;endArrow=block;entryX=0;entryY=0.54;entryDx=0;entryDy=0;entryPerimeter=0;" parent="15" edge="1">
                    <mxGeometry width="80" relative="1" as="geometry">
                        <mxPoint x="50" y="188.86" as="sourcePoint"/>
                        <mxPoint x="138" y="189.06000000000006" as="targetPoint"/>
                    </mxGeometry>
                </mxCell>
                <mxCell id="6" value="upload compressed image" style="html=1;verticalAlign=bottom;endArrow=block;" parent="1" target="5" edge="1">
                    <mxGeometry width="80" relative="1" as="geometry">
                        <mxPoint x="240" y="269" as="sourcePoint"/>
                        <mxPoint x="409.5" y="269" as="targetPoint"/>
                    </mxGeometry>
                </mxCell>
                <mxCell id="25" value="laser / motor commands" style="html=1;verticalAlign=bottom;endArrow=block;" parent="1" target="15" edge="1">
                    <mxGeometry width="80" relative="1" as="geometry">
                        <mxPoint x="660" y="299" as="sourcePoint"/>
                        <mxPoint x="779.5" y="299" as="targetPoint"/>
                    </mxGeometry>
                </mxCell>
                <mxCell id="29" value="laser en ack / error flag" style="html=1;verticalAlign=bottom;endArrow=none;startArrow=block;startFill=1;endFill=0;" parent="1" edge="1">
                    <mxGeometry width="80" relative="1" as="geometry">
                        <mxPoint x="239.92857142857144" y="348" as="sourcePoint"/>
                        <mxPoint x="419.5" y="348" as="targetPoint"/>
                    </mxGeometry>
                </mxCell>
                <mxCell id="34" value="laser output" style="html=1;verticalAlign=bottom;endArrow=block;entryX=0;entryY=0.54;entryDx=0;entryDy=0;entryPerimeter=0;" parent="1" edge="1">
                    <mxGeometry width="80" relative="1" as="geometry">
                        <mxPoint x="968" y="309" as="sourcePoint"/>
                        <mxPoint x="1056" y="309.20000000000005" as="targetPoint"/>
                    </mxGeometry>
                </mxCell>
                <mxCell id="35" value="" style="verticalLabelPosition=bottom;shadow=0;dashed=0;align=center;html=1;verticalAlign=top;shape=mxgraph.electrical.opto_electronics.led_1;pointerEvents=1;fillColor=#008a00;strokeColor=#005700;fontColor=#ffffff;" parent="1" vertex="1">
                    <mxGeometry x="898" y="293" width="70" height="30" as="geometry"/>
                </mxCell>
                <mxCell id="40" value="laser en ack / &lt;br&gt;peripheral error flag" style="html=1;verticalAlign=bottom;endArrow=none;startArrow=block;startFill=1;endFill=0;" parent="1" edge="1">
                    <mxGeometry width="80" relative="1" as="geometry">
                        <mxPoint x="660" y="339" as="sourcePoint"/>
                        <mxPoint x="809.5" y="339" as="targetPoint"/>
                    </mxGeometry>
                </mxCell>
            </root>
        </mxGraphModel>
    </diagram>
</mxfile>